<svg width="200" height="80" viewBox="0 0 200 80" fill="none" xmlns="http://www.w3.org/2000/svg">
<path d="M54.6201 35.0581H55.0494C55.8262 34.2813 56.7256 33.5659 57.7477 32.9118C58.6062 32.3394 59.6283 31.8284 60.8139 31.3786C61.9995 30.9289 63.3282 30.7041 64.8 30.7041C66.9259 30.7041 68.6839 31.256 70.0739 32.3598C71.464 33.4228 72.159 34.8946 72.159 36.7752C72.159 37.3476 72.0977 38.0017 71.975 38.7376C71.8524 39.4326 71.7093 40.189 71.5457 41.0066C71.3822 41.7834 71.1982 42.5806 70.9938 43.3983C70.8303 44.1751 70.6872 44.8905 70.5645 45.5447L67.9889 57.503H55.54L58.9128 41.4972C58.9946 40.9657 59.0968 40.4343 59.2195 39.9028C59.3421 39.3304 59.4034 38.8194 59.4034 38.3697C59.4034 37.7564 59.2399 37.2658 58.9128 36.8979C58.6267 36.489 58.1769 36.2846 57.5637 36.2846C56.8278 36.2846 56.1123 36.5504 55.4173 37.0818C54.7632 37.6133 54.2522 38.0835 53.8842 38.4923L49.8368 57.503H37.3265L46.0346 16.2928H58.6062L54.6201 35.0581Z" fill="#484542"/>
<path d="M78.2876 33.4024C80.3727 32.3803 82.4986 31.6444 84.6654 31.1947C86.8731 30.7041 89.3261 30.4588 92.0244 30.4588C94.6409 30.4588 96.8077 30.6632 98.5248 31.072C100.242 31.4808 101.611 32.0737 102.634 32.8504C103.656 33.6272 104.371 34.5471 104.78 35.61C105.189 36.673 105.393 37.8791 105.393 39.2282C105.393 40.005 105.332 40.8431 105.209 41.7425C105.127 42.642 105.025 43.3983 104.903 44.0115L102.02 57.503H92.147L91.0432 53.5782H90.6752C89.367 55.0091 87.8339 56.113 86.0759 56.8897C84.3588 57.6256 82.6417 57.9936 80.9246 57.9936C79.9434 57.9936 78.9826 57.8505 78.0423 57.5643C77.102 57.2781 76.2639 56.8488 75.528 56.2765C74.7921 55.6632 74.1993 54.9069 73.7496 54.0075C73.2999 53.0672 73.075 51.9429 73.075 50.6346C73.075 48.5087 73.6474 46.8325 74.7921 45.606C75.9777 44.3386 77.5109 43.3983 79.3915 42.785C81.313 42.1309 83.4594 41.7221 85.8306 41.5585C88.2427 41.395 90.6548 41.3132 93.0669 41.3132C93.1487 40.9044 93.2509 40.3321 93.3735 39.5962C93.4962 38.8194 93.5575 38.1448 93.5575 37.5724C93.5575 36.8365 93.3531 36.162 92.9442 35.5487C92.5763 34.8946 91.7791 34.5675 90.5526 34.5675C89.1217 34.5675 88.0587 34.9968 87.3637 35.8553C86.7096 36.673 86.2803 37.6746 86.0759 38.8603H77.1225L78.2876 33.4024ZM92.3923 44.1955H91.2885C90.1029 44.1955 89.0808 44.359 88.2222 44.6861C87.4046 44.9723 86.73 45.3607 86.1985 45.8513C85.7079 46.3419 85.34 46.8938 85.0947 47.507C84.8494 48.1203 84.7267 48.7335 84.7267 49.3468C84.7267 50.328 84.972 51.0639 85.4626 51.5545C85.9941 52.0451 86.6074 52.2904 87.3024 52.2904C88.1609 52.2904 88.999 51.9838 89.8167 51.3705C90.6752 50.7573 91.2067 49.9396 91.4111 48.9175L92.3923 44.1955Z" fill="#484542"/>
<path d="M126.535 38.8603C126.576 38.6558 126.617 38.4514 126.658 38.247C126.699 38.0426 126.719 37.8177 126.719 37.5724C126.719 36.8365 126.576 36.162 126.29 35.5487C126.045 34.8946 125.534 34.5675 124.757 34.5675C124.062 34.5675 123.367 34.8742 122.672 35.4874C121.977 36.0598 121.629 36.8365 121.629 37.8177C121.629 38.4719 121.793 39.0034 122.12 39.4122C122.488 39.7801 122.958 40.0868 123.53 40.3321C124.103 40.5774 124.736 40.7818 125.432 40.9453C126.167 41.1088 126.883 41.2724 127.578 41.4359C128.559 41.6812 129.479 41.9878 130.338 42.3558C131.237 42.6828 132.034 43.1325 132.729 43.7049C133.424 44.2773 133.976 44.9927 134.385 45.8513C134.794 46.6689 134.998 47.691 134.998 48.9175C134.998 50.6346 134.589 52.086 133.772 53.2716C132.995 54.4163 131.891 55.3566 130.46 56.0925C129.07 56.7875 127.414 57.2781 125.493 57.5643C123.612 57.8505 121.588 57.9936 119.422 57.9936C116.11 57.9936 113.371 57.7483 111.204 57.2577C109.037 56.7671 107.525 56.2969 106.666 55.8472L107.954 49.7147H116.233C116.192 49.9192 116.171 50.1236 116.171 50.328C116.171 50.4915 116.171 50.6755 116.171 50.8799C116.171 51.8202 116.376 52.5766 116.785 53.1489C117.234 53.6804 117.991 53.9461 119.054 53.9461C120.239 53.9461 121.077 53.6191 121.568 52.9649C122.1 52.2699 122.365 51.6362 122.365 51.0639C122.365 50.4915 122.14 50.0009 121.691 49.5921C121.282 49.1424 120.75 48.7744 120.096 48.4882C119.442 48.1612 118.706 47.8954 117.889 47.691C117.112 47.4457 116.355 47.2209 115.62 47.0164C115.088 46.8938 114.475 46.6894 113.78 46.4032C113.126 46.117 112.492 45.7082 111.879 45.1767C111.265 44.6452 110.754 43.9707 110.346 43.153C109.937 42.2944 109.732 41.2315 109.732 39.9641C109.732 38.1652 110.162 36.673 111.02 35.4874C111.92 34.2609 113.064 33.2797 114.454 32.5438C115.885 31.8079 117.48 31.2764 119.238 30.9494C121.037 30.6223 122.835 30.4588 124.634 30.4588C126.883 30.4588 129.009 30.6632 131.012 31.072C133.015 31.4808 134.651 32.0123 135.918 32.6665L134.508 38.8603H126.535Z" fill="#484542"/>
<path d="M156.419 38.8603C156.46 38.6558 156.501 38.4514 156.542 38.247C156.583 38.0426 156.603 37.8177 156.603 37.5724C156.603 36.8365 156.46 36.162 156.174 35.5487C155.929 34.8946 155.418 34.5675 154.641 34.5675C153.946 34.5675 153.251 34.8742 152.556 35.4874C151.861 36.0598 151.513 36.8365 151.513 37.8177C151.513 38.4719 151.677 39.0034 152.004 39.4122C152.372 39.7801 152.842 40.0868 153.414 40.3321C153.987 40.5774 154.62 40.7818 155.315 40.9453C156.051 41.1088 156.767 41.2724 157.462 41.4359C158.443 41.6812 159.363 41.9878 160.221 42.3558C161.121 42.6828 161.918 43.1325 162.613 43.7049C163.308 44.2773 163.86 44.9927 164.269 45.8513C164.678 46.6689 164.882 47.691 164.882 48.9175C164.882 50.6346 164.473 52.086 163.656 53.2716C162.879 54.4163 161.775 55.3566 160.344 56.0925C158.954 56.7875 157.298 57.2781 155.377 57.5643C153.496 57.8505 151.472 57.9936 149.306 57.9936C145.994 57.9936 143.255 57.7483 141.088 57.2577C138.921 56.7671 137.409 56.2969 136.55 55.8472L137.838 49.7147H146.117C146.076 49.9192 146.055 50.1236 146.055 50.328C146.055 50.4915 146.055 50.6755 146.055 50.8799C146.055 51.8202 146.26 52.5766 146.669 53.1489C147.118 53.6804 147.875 53.9461 148.938 53.9461C150.123 53.9461 150.961 53.6191 151.452 52.9649C151.983 52.2699 152.249 51.6362 152.249 51.0639C152.249 50.4915 152.024 50.0009 151.575 49.5921C151.166 49.1424 150.634 48.7744 149.98 48.4882C149.326 48.1612 148.59 47.8954 147.772 47.691C146.996 47.4457 146.239 47.2209 145.503 47.0164C144.972 46.8938 144.359 46.6894 143.664 46.4032C143.01 46.117 142.376 45.7082 141.763 45.1767C141.149 44.6452 140.638 43.9707 140.229 43.153C139.821 42.2944 139.616 41.2315 139.616 39.9641C139.616 38.1652 140.045 36.673 140.904 35.4874C141.803 34.2609 142.948 33.2797 144.338 32.5438C145.769 31.8079 147.364 31.2764 149.122 30.9494C150.92 30.6223 152.719 30.4588 154.518 30.4588C156.767 30.4588 158.893 30.6632 160.896 31.072C162.899 31.4808 164.534 32.0123 165.802 32.6665L164.391 38.8603H156.419Z" fill="#484542"/>
<path d="M181.971 31.1333L183.81 49.1628L193.5 31.1333H200L185.221 57.503C183.749 60.0786 182.257 62.0614 180.744 63.4515C179.231 64.8415 177.576 65.8636 175.777 66.5177C174.019 67.1718 172.056 67.5398 169.89 67.6216C167.764 67.7442 165.331 67.8055 162.592 67.8055L163.512 63.5741C164.861 63.5741 166.108 63.5537 167.253 63.5128C168.438 63.4719 169.379 63.3493 170.074 63.1449C171.014 62.8996 171.688 62.4498 172.097 61.7957C172.506 61.1825 172.71 60.2626 172.71 59.0361C172.71 58.2184 172.629 57.2781 172.465 56.2152C172.343 55.1522 172.199 54.0279 172.036 52.8423L169.031 31.1333H181.971Z" fill="#484542"/>
<path fill-rule="evenodd" clip-rule="evenodd" d="M1.53333 65.6592C1.53333 64.4738 2.49429 63.5128 3.67969 63.5128H167.11V67.8055H3.67969C2.49429 67.8055 1.53333 66.8446 1.53333 65.6592Z" fill="#484542"/>
<path d="M25.9997 12C20.0459 12 15.2194 22.2777 15.2194 34.9559H0C0 22.2777 4.82654 12 10.7804 12H25.9997Z" fill="#484542"/>
<path d="M15.2194 34.9557C15.2194 47.6338 20.0459 57.9115 25.9997 57.9115H10.7804C4.82654 57.9115 0 47.6338 0 34.9557H15.2194Z" fill="#484542"/>
<path fill-rule="evenodd" clip-rule="evenodd" d="M21.3593 39.3951C20.3882 49.9489 16.0209 57.9119 10.7803 57.9119H25.9996C31.2403 57.9119 35.6076 49.9489 36.5786 39.3951H21.3593Z" fill="#484542"/>
<path fill-rule="evenodd" clip-rule="evenodd" d="M36.5546 30.2632C35.5374 19.8357 31.1982 12 25.9996 12H10.7803C15.9789 12 20.318 19.8357 21.3352 30.2632H36.5546Z" fill="#484542"/>
<path fill-rule="evenodd" clip-rule="evenodd" d="M16.4876 12H16.3608C10.407 12 5.58044 22.2777 5.58044 34.9559C5.58044 47.634 10.407 57.9117 16.3608 57.9117H16.4876V57.835C10.9491 56.8736 6.59507 46.9975 6.59507 34.9559C6.59507 22.9142 10.9491 13.0381 16.4876 12.0767V12Z" fill="#FA8F54"/>
<path fill-rule="evenodd" clip-rule="evenodd" d="M18.2632 12H18.1363C12.1825 12 7.35596 22.2777 7.35596 34.9559C7.35596 47.634 12.1825 57.9117 18.1363 57.9117H18.2632V57.835C12.7246 56.8736 8.37058 46.9975 8.37058 34.9559C8.37058 22.9142 12.7246 13.0381 18.2632 12.0767V12Z" fill="#FA8F54"/>
<path fill-rule="evenodd" clip-rule="evenodd" d="M21.3912 16.1366L21.3812 16.1091C20.9121 14.8203 18.4341 14.539 15.8463 15.4809C13.2585 16.4228 11.541 18.2311 12.0101 19.5199L12.0201 19.5474L12.0358 19.5417C11.7956 18.2713 13.4684 16.5951 15.9262 15.7005C18.3841 14.806 20.743 15.0148 21.3756 16.1423L21.3912 16.1366Z" fill="#FA8F54"/>
<path fill-rule="evenodd" clip-rule="evenodd" d="M18.3475 27.2975L18.3375 27.2701C17.8684 25.9812 15.3904 25.7 12.8026 26.6418C10.2148 27.5837 8.49733 29.392 8.96642 30.6809L8.97641 30.7083L8.99207 30.7026C8.75192 29.4323 10.4247 27.756 12.8825 26.8615C15.3404 25.9669 17.6993 26.1757 18.3319 27.3032L18.3475 27.2975Z" fill="#FA8F54"/>
<path fill-rule="evenodd" clip-rule="evenodd" d="M18.6012 38.4584L18.5912 38.4309C18.1221 37.1421 15.644 36.8609 13.0563 37.8027C10.4685 38.7446 8.75099 40.5529 9.22008 41.8417L9.23007 41.8692L9.24573 41.8635C9.00559 40.5932 10.6784 38.9169 13.1362 38.0224C15.594 37.1278 17.9529 37.3366 18.5855 38.4641L18.6012 38.4584Z" fill="#FA8F54"/>
<path fill-rule="evenodd" clip-rule="evenodd" d="M21.3912 47.8438L21.3812 47.8163C20.9121 46.5275 18.4341 46.2462 15.8463 47.1881C13.2585 48.13 11.541 49.9383 12.0101 51.2271L12.0201 51.2546L12.0358 51.2489C11.7956 49.9785 13.4684 48.3023 15.9262 47.4077C18.3841 46.5132 20.743 46.722 21.3756 47.8495L21.3912 47.8438Z" fill="#FA8F54"/>
<path fill-rule="evenodd" clip-rule="evenodd" d="M26.9848 55.5875L26.9798 55.5587C26.7434 54.2077 24.3527 53.4973 21.6401 53.9719C18.9275 54.4466 16.9201 55.9266 17.1565 57.2776L17.1616 57.3064L17.178 57.3035C17.1638 56.0107 19.104 54.653 21.6804 54.2022C24.2568 53.7513 26.5428 54.3696 26.9684 55.5904L26.9848 55.5875Z" fill="#FA8F54"/>
<path fill-rule="evenodd" clip-rule="evenodd" d="M0.77356 26.4008C0.983116 26.4617 1.19446 26.5306 1.40653 26.6078C3.86437 27.5024 5.53715 29.1786 5.297 30.449L5.31266 30.4547L5.32266 30.4272C5.79175 29.1384 4.07423 27.3301 1.48647 26.3882C1.26229 26.3066 1.03894 26.2342 0.817645 26.1708C0.802761 26.2473 0.788065 26.3239 0.77356 26.4008Z" fill="#FA8F54"/>
<path fill-rule="evenodd" clip-rule="evenodd" d="M5.02747 15.5383C7.02072 16.4754 8.29921 17.9129 8.08723 19.0342L8.10289 19.0399L8.11288 19.0125C8.52553 17.8788 7.24613 16.343 5.17075 15.3487C5.12274 15.4111 5.07498 15.4743 5.02747 15.5383Z" fill="#FA8F54"/>
<path fill-rule="evenodd" clip-rule="evenodd" d="M6.66877 56.1829C7.73671 55.8243 9.368 55.9209 11.0454 56.5315C12.0331 56.891 12.8941 57.3767 13.555 57.9116H13.8921C13.2047 57.2908 12.2467 56.72 11.1253 56.3118C9.32383 55.6561 7.5755 55.5932 6.52112 56.0503C6.57015 56.0953 6.61937 56.1395 6.66877 56.1829Z" fill="#FA8F54"/>
<path fill-rule="evenodd" clip-rule="evenodd" d="M1.86776 47.6204C2.66192 47.6609 3.5495 47.8405 4.45038 48.1684C6.90822 49.063 8.581 50.7392 8.34085 52.0096L8.35652 52.0153L8.36651 51.9878C8.8356 50.699 7.11808 48.8907 4.53032 47.9488C3.57178 47.5999 2.6283 47.4188 1.79639 47.3947C1.81997 47.4702 1.84376 47.5454 1.86776 47.6204Z" fill="#FA8F54"/>
<path fill-rule="evenodd" clip-rule="evenodd" d="M0.100448 38.1031C0.604862 38.1952 1.13019 38.3368 1.66011 38.5297C4.11795 39.4243 5.79073 41.1005 5.55058 42.3708L5.56624 42.3765L5.57624 42.3491C6.04533 41.0602 4.32781 39.2519 1.74005 38.31C1.17692 38.1051 0.618985 37.958 0.0858154 37.8667C0.090505 37.9456 0.0953828 38.0244 0.100448 38.1031Z" fill="#FA8F54"/>
<path fill-rule="evenodd" clip-rule="evenodd" d="M36.5787 39.3948C35.6077 49.9487 31.2404 57.9117 25.9997 57.9117C20.0459 57.9117 15.2194 47.634 15.2194 34.9559C15.2194 22.2777 20.0459 12 25.9997 12C31.1983 12 35.5375 19.8357 36.5547 30.2632H30.7614C29.9421 26.0839 28.0617 23.1609 25.8729 23.1609C22.931 23.1609 20.5461 28.4417 20.5461 34.9559C20.5461 41.4701 22.931 46.7509 25.8729 46.7509C28.1057 46.7509 30.0176 43.7091 30.8096 39.3948H36.5787Z" fill="#FA8F54"/>
</svg>
